HIERARCHY
ROOT Hips
{
	OFFSET -1.602300 6.242603 43.997101
	CHANNELS 6 Xposition Yposition Zposition Zrotation Xrotation Yrotation
	JOINT Chest
	{
		OFFSET -0.204900 1.598101 7.917301
		CHANNELS 6 Xposition Yposition Zposition Zrotation Xrotation Yrotation
		JOINT Chest2
		{
			OFFSET 0.000000 0.000000 3.404099
			CHANNELS 6 Xposition Yposition Zposition Zrotation Xrotation Yrotation
			JOINT Neck
			{
				OFFSET 0.000000 0.000000 7.928600
				CHANNELS 6 Xposition Yposition Zposition Zrotation Xrotation Yrotation
				JOINT Head
				{
					OFFSET 0.000000 0.000000 2.173897
					CHANNELS 6 Xposition Yposition Zposition Zrotation Xrotation Yrotation
					End Site
					{
						OFFSET 0.000000 0.000001 10.404503
					}
				}
			}
			JOINT LeftCollar
			{
				OFFSET 2.833800 -1.396299 4.843300
				CHANNELS 6 Xposition Yposition Zposition Zrotation Xrotation Yrotation
				JOINT LeftShoulder
				{
					OFFSET 4.363600 0.000000 0.000000
					CHANNELS 6 Xposition Yposition Zposition Zrotation Xrotation Yrotation
					JOINT LeftElbow
					{
						OFFSET 0.000000 -0.000001 -10.306900
						CHANNELS 6 Xposition Yposition Zposition Zrotation Xrotation Yrotation
						JOINT LeftWrist
						{
							OFFSET 0.000000 -0.000001 -12.404900
							CHANNELS 6 Xposition Yposition Zposition Zrotation Xrotation Yrotation
							End Site
							{
								OFFSET 0.000000 0.000000 -2.173901
							}
						}
					}
				}
			}
			JOINT RightCollar
			{
				OFFSET -2.354800 -1.897200 5.063099
				CHANNELS 6 Xposition Yposition Zposition Zrotation Xrotation Yrotation
				JOINT RightShoulder
				{
					OFFSET -4.375800 0.000000 0.000000
					CHANNELS 6 Xposition Yposition Zposition Zrotation Xrotation Yrotation
					JOINT RightElbow
					{
						OFFSET 0.000000 -0.000001 -10.005001
						CHANNELS 6 Xposition Yposition Zposition Zrotation Xrotation Yrotation
						JOINT RightWrist
						{
							OFFSET 0.000000 -0.000001 -13.174900
							CHANNELS 6 Xposition Yposition Zposition Zrotation Xrotation Yrotation
							End Site
							{
								OFFSET 0.000000 0.000000 -2.173901
							}
						}
					}
				}
			}
		}
	}
	JOINT LeftHip
	{
		OFFSET 2.240600 0.386800 -2.614101
		CHANNELS 6 Xposition Yposition Zposition Zrotation Xrotation Yrotation
		JOINT LeftKnee
		{
			OFFSET 0.000000 -0.000001 -18.592899
			CHANNELS 6 Xposition Yposition Zposition Zrotation Xrotation Yrotation
			JOINT LeftAnkle
			{
				OFFSET 0.000000 -0.000001 -18.765800
				CHANNELS 6 Xposition Yposition Zposition Zrotation Xrotation Yrotation
				End Site
				{
					OFFSET 0.000000 -8.655000 0.000000
				}
			}
		}
	}
	JOINT RightHip
	{
		OFFSET -2.014900 -0.220900 -2.615898
		CHANNELS 6 Xposition Yposition Zposition Zrotation Xrotation Yrotation
		JOINT RightKnee
		{
			OFFSET 0.000000 -0.000001 -18.633900
			CHANNELS 6 Xposition Yposition Zposition Zrotation Xrotation Yrotation
			JOINT RightAnkle
			{
				OFFSET 0.000000 -0.000001 -18.285101
				CHANNELS 6 Xposition Yposition Zposition Zrotation Xrotation Yrotation
				End Site
				{
					OFFSET 0.000000 -7.524500 0.000000
				}
			}
		}
	}
}
MOTION
Frames: 6
Frame Time: 0.041667
-11.472901 23.895802 10.138813 -0.765377 4.295303 -14.533321 -0.204897 1.598100 7.917303 -2.844909 11.301195 19.421163 0.000001 0.000003 3.404102 -22.840812 -13.263030 -4.099125 0.000000 -0.000002 7.928599 50.521694 13.123084 -26.844260 0.000001 -0.000004 2.173904 5.206103 4.205355 4.881484 2.833804 -1.396300 4.843304 -2.992787 6.593179 34.119677 4.363594 0.000006 -0.000001 -17.948030 -3.080767 -100.124016 -0.000002 0.000000 -10.306897 -93.570682 -176.268727 -177.767093 -0.000000 -0.000001 -12.404895 -115.972500 184.102681 -179.515444 -2.354800 -1.897197 5.063108 6.325005 10.826535 4.081507 -4.375792 -0.000000 -0.000010 31.613906 -36.945115 121.223386 -0.000006 0.000009 -10.005012 -84.384986 0.312712 -103.206412 -0.000004 0.000001 -13.174892 74.745424 -232.283368 175.152469 2.240593 0.386800 -2.614106 159.298221 -8.190232 97.834837 0.000003 0.000002 -18.592897 -21.062855 48.239529 -32.450256 0.000001 0.000002 -18.765795 -30.489339 54.907710 15.027743 -2.014897 -0.220890 -2.615904 -89.840210 -30.304235 -78.783589 0.000001 0.000006 -18.633884 160.063625 31.967703 -171.334831 -0.000005 -0.000000 -18.285084 -40.168592 27.532006 -197.984931
-11.474601 23.895603 10.142204 -0.771271 4.331912 -14.540672 -0.204897 1.598099 7.917307 -2.828299 11.288640 19.361698 -0.000001 0.000002 3.404102 -22.838534 -13.224175 -4.092453 -0.000003 -0.000003 7.928602 50.566424 13.138465 -26.901427 0.000001 0.000000 2.173911 5.059968 4.262363 4.845634 2.833799 -1.396298 4.843301 -3.003011 6.525396 33.872769 4.363593 0.000003 0.000003 -17.909874 -3.165039 -99.812300 0.000001 0.000002 -10.306892 -93.920224 -176.357875 -177.823060 -0.000001 0.000001 -12.404893 -115.718800 183.920752 -178.719058 -2.354801 -1.897201 5.063102 6.207663 10.645725 4.290964 -4.375792 0.000000 -0.000004 31.902714 -37.320796 121.248890 -0.000004 0.000010 -10.004998 -84.120241 0.059529 -105.088485 -0.000009 0.000003 -13.174893 79.809271 -228.006099 168.677915 2.240592 0.386802 -2.614100 159.283399 -8.164658 97.820473 0.000002 0.000001 -18.592897 -20.821625 48.047410 -32.612736 0.000002 0.000004 -18.765797 -30.629997 55.142535 14.939534 -2.014899 -0.220894 -2.615897 -89.828005 -30.326740 -78.811511 0.000001 0.000002 -18.633888 160.034570 31.977610 -171.325610 -0.000004 -0.000001 -18.285084 -40.148019 27.581236 -198.114773
-11.475900 23.895102 10.145912 -0.783684 4.366525 -14.542043 -0.204899 1.598099 7.917305 -2.798100 11.267051 19.277181 -0.000001 -0.000002 3.404101 -22.806748 -13.187669 -4.079910 -0.000001 -0.000001 7.928599 50.314138 13.240305 -26.603093 0.000002 -0.000002 2.173904 5.195560 4.090392 4.765844 2.833798 -1.396298 4.843294 -3.195472 6.538671 33.647677 4.363593 0.000005 -0.000005 -17.801430 -3.410192 -99.485960 -0.000002 0.000002 -10.306893 -94.402975 -176.366481 -177.865680 -0.000002 0.000001 -12.404896 -115.509414 183.766199 -178.131607 -2.354802 -1.897199 5.063094 6.101109 10.483626 4.465632 -4.375791 0.000003 -0.000001 31.958291 -37.419601 121.176435 -0.000003 0.000010 -10.005011 -83.985201 0.081669 -105.019780 -0.000007 0.000002 -13.174896 79.723334 -228.158248 168.860909 2.240590 0.386803 -2.614101 159.288331 -8.116929 97.809702 0.000002 -0.000002 -18.592897 -20.699573 47.918097 -32.696163 0.000001 0.000001 -18.765799 -30.651095 55.260175 14.822421 -2.014898 -0.220894 -2.615899 -89.801579 -30.360843 -78.829085 0.000000 0.000004 -18.633884 159.986294 31.988744 -171.310994 -0.000006 -0.000002 -18.285086 -40.129192 27.638859 -198.220655
-11.476901 23.894802 10.150009 -0.810758 4.398386 -14.541580 -0.204898 1.598103 7.917308 -2.748415 11.241081 19.174371 0.000001 0.000001 3.404103 -22.754608 -13.146918 -4.063291 -0.000001 -0.000001 7.928602 50.087669 13.353716 -26.339274 0.000002 -0.000002 2.173909 5.274310 3.906893 4.718308 2.833805 -1.396301 4.843294 -3.409907 6.562285 33.453215 4.363592 0.000002 -0.000008 -17.713426 -3.694996 -99.190671 -0.000003 0.000001 -10.306890 -94.802227 -176.319339 -177.848291 0.000001 -0.000001 -12.404892 -115.175117 183.775624 -178.114723 -2.354799 -1.897200 5.063098 5.980214 10.321097 4.679962 -4.375790 0.000002 -0.000005 31.995994 -37.549354 121.081728 0.000001 0.000003 -10.005003 -83.806469 0.130771 -104.979400 -0.000008 0.000004 -13.174897 79.770128 -228.126693 168.826744 2.240590 0.386803 -2.614098 159.319080 -8.056819 97.789984 0.000005 0.000001 -18.592897 -20.625660 47.810187 -32.737032 0.000001 0.000001 -18.765795 -30.579812 55.478399 14.673483 -2.014898 -0.220892 -2.615896 -89.756411 -30.402951 -78.836468 -0.000000 0.000006 -18.633884 159.926584 31.998716 -171.294410 -0.000005 0.000000 -18.285084 -40.114135 27.679948 -198.263985
-11.477899 23.894802 10.152908 -0.838583 4.425365 -14.528625 -0.204896 1.598100 7.917307 -2.700043 11.221179 19.079560 -0.000002 0.000004 3.404103 -22.725822 -13.118691 -4.051142 -0.000002 -0.000004 7.928600 50.048846 13.428145 -26.317363 0.000001 -0.000001 2.173905 5.191891 3.890141 4.713648 2.833804 -1.396302 4.843298 -3.598830 6.609093 33.348904 4.363593 0.000005 -0.000002 -17.642150 -3.934954 -99.016699 -0.000001 0.000001 -10.306893 -94.991600 -176.290160 -177.832663 0.000000 0.000001 -12.404895 -115.005291 183.732143 -178.165881 -2.354801 -1.897201 5.063101 5.914115 10.229567 4.785100 -4.375789 0.000000 -0.000008 32.122779 -37.712965 121.134880 -0.000004 0.000010 -10.005006 -83.497813 0.446728 -104.901495 -0.000008 0.000001 -13.174899 80.078852 -228.070808 168.926820 2.240592 0.386803 -2.614102 159.364993 -7.972374 97.773113 0.000005 0.000001 -18.592897 -20.468050 47.647926 -32.829219 0.000001 0.000002 -18.765797 -30.762407 55.696487 14.755690 -2.014899 -0.220891 -2.615899 -89.705724 -30.443195 -78.839555 0.000000 0.000003 -18.633888 159.862982 32.010457 -171.281555 -0.000005 -0.000002 -18.285084 -40.104248 27.705749 -198.268616
-11.478601 23.895403 10.154812 -0.860267 4.446387 -14.503985 -0.204898 1.598100 7.917305 -2.663086 11.216915 18.992987 -0.000002 0.000002 3.404098 -22.728190 -13.091537 -4.045094 -0.000003 0.000000 7.928607 49.936719 13.491088 -26.186185 0.000001 -0.000002 2.173908 5.215748 3.779154 4.759418 2.833801 -1.396298 4.843302 -3.682580 6.630151 33.278895 4.363586 0.000002 -0.000002 -17.620003 -4.049298 -98.885662 -0.000003 0.000001 -10.306894 -94.836357 -176.280489 -177.791832 -0.000000 -0.000000 -12.404890 -115.096925 183.892024 -178.311951 -2.354802 -1.897197 5.063108 5.881960 10.179559 4.835864 -4.375791 0.000000 -0.000010 32.242168 -37.830983 121.213578 -0.000004 0.000006 -10.005011 -83.224141 0.771677 -104.809116 -0.000002 0.000004 -13.174898 80.500179 -228.200486 169.051471 2.240589 0.386802 -2.614102 159.398256 -7.897486 97.722057 0.000003 0.000001 -18.592897 -20.212434 47.395390 -32.949051 0.000001 0.000000 -18.765797 -31.105016 55.999130 14.934840 -2.014898 -0.220894 -2.615898 -89.677064 -30.448802 -78.849097 0.000001 0.000004 -18.633888 159.818176 32.014760 -171.266666 -0.000005 0.000000 -18.285086 -40.103241 27.719582 -198.237799
